<svg xmlns="http://www.w3.org/2000/svg" xmlns:xlink="http://www.w3.org/1999/xlink" viewBox="0 0 227.95 83.16"><defs><style>.a{mask:url(#a);}.ab,.ad,.af,.ah,.aj,.al,.an,.ap,.ar,.at,.av,.ax,.az,.b,.bb,.bd,.d,.f,.h,.j,.l,.n,.p,.r,.t,.v,.x,.z{mix-blend-mode:multiply;}.b{fill:url(#c);}.c{mask:url(#d);}.d{fill:url(#f);}.e{mask:url(#g);}.f{fill:url(#i);}.g{mask:url(#j);}.h{fill:url(#l);}.i{mask:url(#m);}.j{fill:url(#o);}.k{mask:url(#p);}.l{fill:url(#r);}.m{mask:url(#s);}.n{fill:url(#u);}.o{mask:url(#v);}.p{fill:url(#x);}.q{mask:url(#y);}.r{fill:url(#aa);}.s{mask:url(#ab);}.t{fill:url(#ad);}.u{mask:url(#ae);}.v{fill:url(#ag);}.w{mask:url(#ah);}.x{fill:url(#aj);}.y{mask:url(#ak);}.z{fill:url(#am);}.aa{mask:url(#an);}.ab{fill:url(#ap);}.ac{mask:url(#aq);}.ad{fill:url(#as);}.ae{mask:url(#at);}.af{fill:url(#av);}.ag{mask:url(#aw);}.ah{fill:url(#ay);}.ai{mask:url(#az);}.aj{fill:url(#bb);}.ak{mask:url(#bc);}.al{fill:url(#be);}.am{mask:url(#bf);}.an{fill:url(#bh);}.ao{mask:url(#bi);}.ap{fill:url(#bk);}.aq{mask:url(#bl);}.ar{fill:url(#bn);}.as{mask:url(#bo);}.at{fill:url(#bq);}.au{mask:url(#br);}.av{fill:url(#bt);}.aw{mask:url(#bu);}.ax{fill:url(#bw);}.ay{mask:url(#bx);}.az{fill:url(#bz);}.ba{mask:url(#ca);}.bb{fill:url(#cc);}.bc{mask:url(#cd);}.bd{fill:url(#cf);}.be,.bh,.bi,.bl,.bv,.by{fill:#7eb8a2;}.bf{fill:#d7496d;}.bg{font-size:22.89px;fill:#7e638c;font-family:Open Sans;}.bh{opacity:0.21;}.bi{opacity:0.43;}.bj{mask:url(#cg);}.bk{mask:url(#ci);}.bl{opacity:0.25;}.bm{mask:url(#ck);}.bn{mask:url(#cm);}.bo{mask:url(#co);}.bp{mask:url(#cq);}.bq{mask:url(#cs);}.br{mask:url(#cu);}.bs{mask:url(#cw);}.bt{mask:url(#cy);}.bu{mask:url(#da);}.bv{opacity:0.26;}.bw{mask:url(#dc);}.bx{mask:url(#de);}.by{opacity:0.59;}.bz{mask:url(#dg);}.ca{mask:url(#di);}.cb{mask:url(#dk);}.cc{mask:url(#dm);}.cd{mask:url(#do);}.ce{mask:url(#dq);}.cf{mask:url(#ds);}.cg{mask:url(#du);}.ch{mask:url(#dw);}.ci{mask:url(#dy);}.cj{mask:url(#ea);}.ck{mask:url(#ec);}.cl{mask:url(#ee);}.cm{mask:url(#eg);}.cn{mask:url(#ei);}.co{filter:url(#ej);}.cp{filter:url(#eh);}.cq{filter:url(#ef);}.cr{filter:url(#ed);}.cs{filter:url(#eb);}.ct{filter:url(#dz);}.cu{filter:url(#dx);}.cv{filter:url(#dv);}.cw{filter:url(#dt);}.cx{filter:url(#dr);}.cy{filter:url(#dp);}.cz{filter:url(#dn);}.da{filter:url(#dl);}.db{filter:url(#dj);}.dc{filter:url(#dh);}.dd{filter:url(#df);}.de{filter:url(#dd);}.df{filter:url(#db);}.dg{filter:url(#cz);}.dh{filter:url(#cx);}.di{filter:url(#cv);}.dj{filter:url(#ct);}.dk{filter:url(#cr);}.dl{filter:url(#cp);}.dm{filter:url(#cn);}.dn{filter:url(#cl);}.do{filter:url(#cj);}.dp{filter:url(#ch);}.dq{filter:url(#ce);}.dr{filter:url(#cb);}.ds{filter:url(#by);}.dt{filter:url(#bv);}.du{filter:url(#bs);}.dv{filter:url(#bp);}.dw{filter:url(#bm);}.dx{filter:url(#bj);}.dy{filter:url(#bg);}.dz{filter:url(#bd);}.ea{filter:url(#ba);}.eb{filter:url(#ax);}.ec{filter:url(#au);}.ed{filter:url(#ar);}.ee{filter:url(#ao);}.ef{filter:url(#al);}.eg{filter:url(#ai);}.eh{filter:url(#af);}.ei{filter:url(#ac);}.ej{filter:url(#z);}.ek{filter:url(#w);}.el{filter:url(#t);}.em{filter:url(#q);}.en{filter:url(#n);}.eo{filter:url(#k);}.ep{filter:url(#h);}.eq{filter:url(#e);}.er{filter:url(#b);}</style><filter id="b" x="122.19" y="-8437" width="1.54" height="32766" filterUnits="userSpaceOnUse" color-interpolation-filters="sRGB"><feFlood flood-color="#fff" result="bg"/><feBlend in="SourceGraphic" in2="bg"/></filter><mask id="a" x="122.19" y="-8437" width="1.54" height="32766" maskUnits="userSpaceOnUse"><g class="er"/></mask><radialGradient id="c" cx="122.96" cy="13.74" r="0.79" gradientUnits="userSpaceOnUse"><stop offset="0" stop-color="#fff"/><stop offset="1"/></radialGradient><filter id="e" x="121.74" y="-8437" width="0.35" height="32766" filterUnits="userSpaceOnUse" color-interpolation-filters="sRGB"><feFlood flood-color="#fff" result="bg"/><feBlend in="SourceGraphic" in2="bg"/></filter><mask id="d" x="121.74" y="-8437" width="0.35" height="32766" maskUnits="userSpaceOnUse"><g class="eq"/></mask><radialGradient id="f" cx="122.12" cy="13.34" r="0.58" gradientUnits="userSpaceOnUse"><stop offset="0" stop-color="#fff"/><stop offset="0.14" stop-color="#e3e3e3"/><stop offset="0.43" stop-color="#9b9b9b"/><stop offset="0.85" stop-color="#292929"/><stop offset="1"/></radialGradient><filter id="h" x="122.15" y="-8437" width="0.35" height="32766" filterUnits="userSpaceOnUse" color-interpolation-filters="sRGB"><feFlood flood-color="#fff" result="bg"/><feBlend in="SourceGraphic" in2="bg"/></filter><mask id="g" x="122.15" y="-8437" width="0.35" height="32766" maskUnits="userSpaceOnUse"><g class="ep"/></mask><radialGradient id="i" cx="122.53" cy="13.33" r="0.58" xlink:href="#f"/><filter id="k" x="122.54" y="-8437" width="0.35" height="32766" filterUnits="userSpaceOnUse" color-interpolation-filters="sRGB"><feFlood flood-color="#fff" result="bg"/><feBlend in="SourceGraphic" in2="bg"/></filter><mask id="j" x="122.54" y="-8437" width="0.35" height="32766" maskUnits="userSpaceOnUse"><g class="eo"/></mask><radialGradient id="l" cx="122.92" cy="13.33" r="0.58" xlink:href="#f"/><filter id="n" x="121.44" y="-8437" width="0.34" height="32766" filterUnits="userSpaceOnUse" color-interpolation-filters="sRGB"><feFlood flood-color="#fff" result="bg"/><feBlend in="SourceGraphic" in2="bg"/></filter><mask id="m" x="121.44" y="-8437" width="0.34" height="32766" maskUnits="userSpaceOnUse"><g class="en"/></mask><linearGradient id="o" x1="121.44" y1="13.11" x2="121.78" y2="13.11" xlink:href="#f"/><filter id="q" x="122.83" y="-8437" width="0.37" height="32766" filterUnits="userSpaceOnUse" color-interpolation-filters="sRGB"><feFlood flood-color="#fff" result="bg"/><feBlend in="SourceGraphic" in2="bg"/></filter><mask id="p" x="122.83" y="-8437" width="0.37" height="32766" maskUnits="userSpaceOnUse"><g class="em"/></mask><linearGradient id="r" x1="123.2" y1="13.11" x2="122.83" y2="13.11" xlink:href="#f"/><filter id="t" x="121.56" y="-8437" width="0.35" height="32766" filterUnits="userSpaceOnUse" color-interpolation-filters="sRGB"><feFlood flood-color="#fff" result="bg"/><feBlend in="SourceGraphic" in2="bg"/></filter><mask id="s" x="121.56" y="-8437" width="0.35" height="32766" maskUnits="userSpaceOnUse"><g class="el"/></mask><radialGradient id="u" cx="121.94" cy="13.34" r="0.58" xlink:href="#f"/><filter id="w" x="119.48" y="-8437" width="1.99" height="32766" filterUnits="userSpaceOnUse" color-interpolation-filters="sRGB"><feFlood flood-color="#fff" result="bg"/><feBlend in="SourceGraphic" in2="bg"/></filter><mask id="v" x="119.48" y="-8437" width="1.99" height="32766" maskUnits="userSpaceOnUse"><g class="ek"/></mask><radialGradient id="x" cx="121.43" cy="12.61" r="0.86" xlink:href="#f"/><filter id="z" x="119.65" y="-8437" width="1.95" height="32766" filterUnits="userSpaceOnUse" color-interpolation-filters="sRGB"><feFlood flood-color="#fff" result="bg"/><feBlend in="SourceGraphic" in2="bg"/></filter><mask id="y" x="119.65" y="-8437" width="1.95" height="32766" maskUnits="userSpaceOnUse"><g class="ej"/></mask><radialGradient id="aa" cx="121.6" cy="11.95" r="0.93" xlink:href="#f"/><filter id="ac" x="123.19" y="-8437" width="1.93" height="32766" filterUnits="userSpaceOnUse" color-interpolation-filters="sRGB"><feFlood flood-color="#fff" result="bg"/><feBlend in="SourceGraphic" in2="bg"/></filter><mask id="ab" x="123.19" y="-8437" width="1.93" height="32766" maskUnits="userSpaceOnUse"><g class="ei"/></mask><radialGradient id="ad" cx="125.27" cy="12.71" r="0.75" xlink:href="#f"/><filter id="af" x="123.09" y="-8437" width="1.44" height="32766" filterUnits="userSpaceOnUse" color-interpolation-filters="sRGB"><feFlood flood-color="#fff" result="bg"/><feBlend in="SourceGraphic" in2="bg"/></filter><mask id="ae" x="123.09" y="-8437" width="1.44" height="32766" maskUnits="userSpaceOnUse"><g class="eh"/></mask><radialGradient id="ag" cx="125.09" cy="12.36" r="0.88" xlink:href="#f"/><filter id="ai" x="167.26" y="-8437" width="1.54" height="32766" filterUnits="userSpaceOnUse" color-interpolation-filters="sRGB"><feFlood flood-color="#fff" result="bg"/><feBlend in="SourceGraphic" in2="bg"/></filter><mask id="ah" x="167.26" y="-8437" width="1.54" height="32766" maskUnits="userSpaceOnUse"><g class="eg"/></mask><radialGradient id="aj" cx="168.04" cy="13.74" r="0.79" xlink:href="#c"/><filter id="al" x="166.64" y="-8437" width="0.35" height="32766" filterUnits="userSpaceOnUse" color-interpolation-filters="sRGB"><feFlood flood-color="#fff" result="bg"/><feBlend in="SourceGraphic" in2="bg"/></filter><mask id="ak" x="166.64" y="-8437" width="0.35" height="32766" maskUnits="userSpaceOnUse"><g class="ef"/></mask><radialGradient id="am" cx="167.01" cy="13.34" r="0.58" xlink:href="#f"/><filter id="ao" x="167.05" y="-8437" width="0.35" height="32766" filterUnits="userSpaceOnUse" color-interpolation-filters="sRGB"><feFlood flood-color="#fff" result="bg"/><feBlend in="SourceGraphic" in2="bg"/></filter><mask id="an" x="167.05" y="-8437" width="0.35" height="32766" maskUnits="userSpaceOnUse"><g class="ee"/></mask><radialGradient id="ap" cx="167.42" cy="13.33" r="0.58" xlink:href="#f"/><filter id="ar" x="167.44" y="-8437" width="0.35" height="32766" filterUnits="userSpaceOnUse" color-interpolation-filters="sRGB"><feFlood flood-color="#fff" result="bg"/><feBlend in="SourceGraphic" in2="bg"/></filter><mask id="aq" x="167.44" y="-8437" width="0.35" height="32766" maskUnits="userSpaceOnUse"><g class="ed"/></mask><radialGradient id="as" cx="167.81" cy="13.33" r="0.58" xlink:href="#f"/><filter id="au" x="167.83" y="-8437" width="0.35" height="32766" filterUnits="userSpaceOnUse" color-interpolation-filters="sRGB"><feFlood flood-color="#fff" result="bg"/><feBlend in="SourceGraphic" in2="bg"/></filter><mask id="at" x="167.83" y="-8437" width="0.35" height="32766" maskUnits="userSpaceOnUse"><g class="ec"/></mask><radialGradient id="av" cx="168.2" cy="13.33" r="0.58" xlink:href="#f"/><filter id="ax" x="166.82" y="-8437" width="0.35" height="32766" filterUnits="userSpaceOnUse" color-interpolation-filters="sRGB"><feFlood flood-color="#fff" result="bg"/><feBlend in="SourceGraphic" in2="bg"/></filter><mask id="aw" x="166.82" y="-8437" width="0.35" height="32766" maskUnits="userSpaceOnUse"><g class="eb"/></mask><radialGradient id="ay" cx="167.19" cy="13.34" r="0.58" xlink:href="#f"/><filter id="ba" x="121.97" y="-8437" width="0.35" height="32766" filterUnits="userSpaceOnUse" color-interpolation-filters="sRGB"><feFlood flood-color="#fff" result="bg"/><feBlend in="SourceGraphic" in2="bg"/></filter><mask id="az" x="121.97" y="-8437" width="0.35" height="32766" maskUnits="userSpaceOnUse"><g class="ea"/></mask><radialGradient id="bb" cx="122.35" cy="13.33" r="0.58" xlink:href="#f"/><filter id="bd" x="167.23" y="-8437" width="0.35" height="32766" filterUnits="userSpaceOnUse" color-interpolation-filters="sRGB"><feFlood flood-color="#fff" result="bg"/><feBlend in="SourceGraphic" in2="bg"/></filter><mask id="bc" x="167.23" y="-8437" width="0.35" height="32766" maskUnits="userSpaceOnUse"><g class="dz"/></mask><radialGradient id="be" cx="167.6" cy="13.33" r="0.58" xlink:href="#f"/><filter id="bg" x="167.62" y="-8437" width="0.35" height="32766" filterUnits="userSpaceOnUse" color-interpolation-filters="sRGB"><feFlood flood-color="#fff" result="bg"/><feBlend in="SourceGraphic" in2="bg"/></filter><mask id="bf" x="167.62" y="-8437" width="0.35" height="32766" maskUnits="userSpaceOnUse"><g class="dy"/></mask><radialGradient id="bh" cx="167.99" cy="13.33" r="0.58" xlink:href="#f"/><filter id="bj" x="166.51" y="-8437" width="0.34" height="32766" filterUnits="userSpaceOnUse" color-interpolation-filters="sRGB"><feFlood flood-color="#fff" result="bg"/><feBlend in="SourceGraphic" in2="bg"/></filter><mask id="bi" x="166.51" y="-8437" width="0.34" height="32766" maskUnits="userSpaceOnUse"><g class="dx"/></mask><linearGradient id="bk" x1="166.51" y1="13.11" x2="166.85" y2="13.11" xlink:href="#f"/><filter id="bm" x="167.9" y="-8437" width="0.37" height="32766" filterUnits="userSpaceOnUse" color-interpolation-filters="sRGB"><feFlood flood-color="#fff" result="bg"/><feBlend in="SourceGraphic" in2="bg"/></filter><mask id="bl" x="167.9" y="-8437" width="0.37" height="32766" maskUnits="userSpaceOnUse"><g class="dw"/></mask><linearGradient id="bn" x1="168.27" y1="13.11" x2="167.91" y2="13.11" xlink:href="#f"/><filter id="bp" x="164.55" y="-8437" width="1.99" height="32766" filterUnits="userSpaceOnUse" color-interpolation-filters="sRGB"><feFlood flood-color="#fff" result="bg"/><feBlend in="SourceGraphic" in2="bg"/></filter><mask id="bo" x="164.55" y="-8437" width="1.99" height="32766" maskUnits="userSpaceOnUse"><g class="dv"/></mask><radialGradient id="bq" cx="166.51" cy="12.61" r="0.86" xlink:href="#f"/><filter id="bs" x="164.72" y="-8437" width="1.95" height="32766" filterUnits="userSpaceOnUse" color-interpolation-filters="sRGB"><feFlood flood-color="#fff" result="bg"/><feBlend in="SourceGraphic" in2="bg"/></filter><mask id="br" x="164.72" y="-8437" width="1.95" height="32766" maskUnits="userSpaceOnUse"><g class="du"/></mask><radialGradient id="bt" cx="166.68" cy="11.95" r="0.93" xlink:href="#f"/><filter id="bv" x="168.26" y="-8437" width="1.93" height="32766" filterUnits="userSpaceOnUse" color-interpolation-filters="sRGB"><feFlood flood-color="#fff" result="bg"/><feBlend in="SourceGraphic" in2="bg"/></filter><mask id="bu" x="168.26" y="-8437" width="1.93" height="32766" maskUnits="userSpaceOnUse"><g class="dt"/></mask><radialGradient id="bw" cx="170.35" cy="12.71" r="0.75" xlink:href="#f"/><filter id="by" x="168.17" y="-8437" width="1.44" height="32766" filterUnits="userSpaceOnUse" color-interpolation-filters="sRGB"><feFlood flood-color="#fff" result="bg"/><feBlend in="SourceGraphic" in2="bg"/></filter><mask id="bx" x="168.17" y="-8437" width="1.44" height="32766" maskUnits="userSpaceOnUse"><g class="ds"/></mask><radialGradient id="bz" cx="170.16" cy="12.36" r="0.88" xlink:href="#f"/><filter id="cb" x="122.36" y="-8437" width="0.35" height="32766" filterUnits="userSpaceOnUse" color-interpolation-filters="sRGB"><feFlood flood-color="#fff" result="bg"/><feBlend in="SourceGraphic" in2="bg"/></filter><mask id="ca" x="122.36" y="-8437" width="0.35" height="32766" maskUnits="userSpaceOnUse"><g class="dr"/></mask><radialGradient id="cc" cx="122.74" cy="13.33" r="0.58" xlink:href="#f"/><filter id="ce" x="122.76" y="-8437" width="0.35" height="32766" filterUnits="userSpaceOnUse" color-interpolation-filters="sRGB"><feFlood flood-color="#fff" result="bg"/><feBlend in="SourceGraphic" in2="bg"/></filter><mask id="cd" x="122.76" y="-8437" width="0.35" height="32766" maskUnits="userSpaceOnUse"><g class="dq"/></mask><radialGradient id="cf" cx="123.13" cy="13.33" r="0.58" xlink:href="#f"/><filter id="ch" x="122.19" y="12.72" width="1.54" height="0.85" filterUnits="userSpaceOnUse" color-interpolation-filters="sRGB"><feFlood flood-color="#fff" result="bg"/><feBlend in="SourceGraphic" in2="bg"/></filter><mask id="cg" x="111.29" y="5.22" width="1.54" height="0.85" maskUnits="userSpaceOnUse"><g class="dp"><g transform="translate(-10.9 -7.5)"><g class="a"><path class="b" d="M123.72,12.76a3.06,3.06,0,0,1-1.47.8L122.19,13A2.78,2.78,0,0,1,123.72,12.76Z"/></g></g></g></mask><filter id="cj" x="121.56" y="12.76" width="0.35" height="1.15" filterUnits="userSpaceOnUse" color-interpolation-filters="sRGB"><feFlood flood-color="#fff" result="bg"/><feBlend in="SourceGraphic" in2="bg"/></filter><mask id="ci" x="110.66" y="5.26" width="0.35" height="1.15" maskUnits="userSpaceOnUse"><g class="do"><g transform="translate(-10.9 -7.5)"><g class="m"><path class="n" d="M121.74,12.76a2,2,0,0,0-.18,1.08l0,0.07h0.3A2.12,2.12,0,0,0,121.74,12.76Z"/></g></g></g></mask><filter id="cl" x="121.97" y="12.76" width="0.35" height="1.16" filterUnits="userSpaceOnUse" color-interpolation-filters="sRGB"><feFlood flood-color="#fff" result="bg"/><feBlend in="SourceGraphic" in2="bg"/></filter><mask id="ck" x="111.07" y="5.26" width="0.35" height="1.16" maskUnits="userSpaceOnUse"><g class="dn"><g transform="translate(-10.9 -7.5)"><g class="ai"><path class="aj" d="M122.15,12.76a2.13,2.13,0,0,0-.18,1.16h0.35A2.13,2.13,0,0,0,122.15,12.76Z"/></g></g></g></mask><filter id="cn" x="122.36" y="12.76" width="0.35" height="1.16" filterUnits="userSpaceOnUse" color-interpolation-filters="sRGB"><feFlood flood-color="#fff" result="bg"/><feBlend in="SourceGraphic" in2="bg"/></filter><mask id="cm" x="111.46" y="5.26" width="0.35" height="1.16" maskUnits="userSpaceOnUse"><g class="dm"><g transform="translate(-10.9 -7.5)"><g class="ba"><path class="bb" d="M122.54,12.76a2.13,2.13,0,0,0-.18,1.16h0.35A2.13,2.13,0,0,0,122.54,12.76Z"/></g></g></g></mask><filter id="cp" x="122.76" y="12.76" width="0.35" height="1.16" filterUnits="userSpaceOnUse" color-interpolation-filters="sRGB"><feFlood flood-color="#fff" result="bg"/><feBlend in="SourceGraphic" in2="bg"/></filter><mask id="co" x="111.86" y="5.26" width="0.35" height="1.16" maskUnits="userSpaceOnUse"><g class="dl"><g transform="translate(-10.9 -7.5)"><g class="bc"><path class="bd" d="M123.11,13.78a1.81,1.81,0,0,0-.17-1,2.13,2.13,0,0,0-.18,1.16H123A0.42,0.42,0,0,0,123.11,13.78Z"/></g></g></g></mask><filter id="cr" x="121.74" y="12.76" width="0.35" height="1.15" filterUnits="userSpaceOnUse" color-interpolation-filters="sRGB"><feFlood flood-color="#fff" result="bg"/><feBlend in="SourceGraphic" in2="bg"/></filter><mask id="cq" x="110.84" y="5.26" width="0.35" height="1.15" maskUnits="userSpaceOnUse"><g class="dk"><g transform="translate(-10.9 -7.5)"><g class="c"><path class="d" d="M121.92,12.76a2,2,0,0,0-.18,1.08l0,0.07h0.3A2.12,2.12,0,0,0,121.92,12.76Z"/></g></g></g></mask><filter id="ct" x="122.15" y="12.76" width="0.35" height="1.16" filterUnits="userSpaceOnUse" color-interpolation-filters="sRGB"><feFlood flood-color="#fff" result="bg"/><feBlend in="SourceGraphic" in2="bg"/></filter><mask id="cs" x="111.25" y="5.26" width="0.35" height="1.16" maskUnits="userSpaceOnUse"><g class="dj"><g transform="translate(-10.9 -7.5)"><g class="e"><path class="f" d="M122.33,12.76a2.13,2.13,0,0,0-.18,1.16h0.35A2.13,2.13,0,0,0,122.33,12.76Z"/></g></g></g></mask><filter id="cv" x="122.54" y="12.76" width="0.35" height="1.16" filterUnits="userSpaceOnUse" color-interpolation-filters="sRGB"><feFlood flood-color="#fff" result="bg"/><feBlend in="SourceGraphic" in2="bg"/></filter><mask id="cu" x="111.64" y="5.26" width="0.35" height="1.16" maskUnits="userSpaceOnUse"><g class="di"><g transform="translate(-10.9 -7.5)"><g class="g"><path class="h" d="M122.72,12.76a2.13,2.13,0,0,0-.18,1.16h0.35A2.13,2.13,0,0,0,122.72,12.76Z"/></g></g></g></mask><filter id="cx" x="121.44" y="12.31" width="0.34" height="1.61" filterUnits="userSpaceOnUse" color-interpolation-filters="sRGB"><feFlood flood-color="#fff" result="bg"/><feBlend in="SourceGraphic" in2="bg"/></filter><mask id="cw" x="110.54" y="4.81" width="0.34" height="1.61" maskUnits="userSpaceOnUse"><g class="dh"><g transform="translate(-10.9 -7.5)"><g class="i"><path class="j" d="M121.62,12.31a1.48,1.48,0,0,0-.18.82,1.21,1.21,0,0,0,.17.79h0.17V12.31h-0.16Z"/></g></g></g></mask><filter id="cz" x="122.83" y="12.31" width="0.37" height="1.61" filterUnits="userSpaceOnUse" color-interpolation-filters="sRGB"><feFlood flood-color="#fff" result="bg"/><feBlend in="SourceGraphic" in2="bg"/></filter><mask id="cy" x="111.93" y="4.81" width="0.37" height="1.61" maskUnits="userSpaceOnUse"><g class="dg"><g transform="translate(-10.9 -7.5)"><g class="k"><path class="l" d="M123.2,13.13a1.52,1.52,0,0,0-.16-0.82h-0.21v1.61H123A1.41,1.41,0,0,0,123.2,13.13Z"/></g></g></g></mask><filter id="db" x="119.48" y="11.76" width="1.99" height="1.67" filterUnits="userSpaceOnUse" color-interpolation-filters="sRGB"><feFlood flood-color="#fff" result="bg"/><feBlend in="SourceGraphic" in2="bg"/></filter><mask id="da" x="108.58" y="4.26" width="1.99" height="1.67" maskUnits="userSpaceOnUse"><g class="df"><g transform="translate(-10.9 -7.5)"><g class="o"><path class="p" d="M121.44,13.13a2.65,2.65,0,0,1,0-.31,4.83,4.83,0,0,0-2-1,3.69,3.69,0,0,0,1.32,1.27,6.91,6.91,0,0,0,.65.38A2.39,2.39,0,0,1,121.44,13.13Z"/></g></g></g></mask><filter id="dd" x="119.65" y="11.08" width="1.95" height="1.8" filterUnits="userSpaceOnUse" color-interpolation-filters="sRGB"><feFlood flood-color="#fff" result="bg"/><feBlend in="SourceGraphic" in2="bg"/></filter><mask id="dc" x="108.74" y="3.59" width="1.95" height="1.8" maskUnits="userSpaceOnUse"><g class="de"><g transform="translate(-10.9 -7.5)"><g class="q"><path class="r" d="M119.65,11.1a5.7,5.7,0,0,0,1.8,1.78,1.45,1.45,0,0,1,.14-0.52,6.33,6.33,0,0,1-.48-0.46A3.23,3.23,0,0,0,119.65,11.1Z"/></g></g></g></mask><filter id="df" x="123.19" y="12.08" width="1.93" height="1.35" filterUnits="userSpaceOnUse" color-interpolation-filters="sRGB"><feFlood flood-color="#fff" result="bg"/><feBlend in="SourceGraphic" in2="bg"/></filter><mask id="de" x="112.29" y="4.58" width="1.93" height="1.35" maskUnits="userSpaceOnUse"><g class="dd"><g transform="translate(-10.9 -7.5)"><g class="s"><path class="t" d="M125.11,12.1a4.44,4.44,0,0,0-1.91.87s0,0.1,0,.15a2.53,2.53,0,0,1,0,.3h0a8.45,8.45,0,0,0,1-.47A2.16,2.16,0,0,0,125.11,12.1Z"/></g></g></g></mask><filter id="dh" x="123.09" y="11.7" width="1.44" height="1.3" filterUnits="userSpaceOnUse" color-interpolation-filters="sRGB"><feFlood flood-color="#fff" result="bg"/><feBlend in="SourceGraphic" in2="bg"/></filter><mask id="dg" x="112.19" y="4.2" width="1.44" height="1.3" maskUnits="userSpaceOnUse"><g class="dc"><g transform="translate(-10.9 -7.5)"><g class="u"><path class="v" d="M123.2,13a3.73,3.73,0,0,0,1.33-1.28,2.84,2.84,0,0,0-1.37.64l-0.07,0A1.91,1.91,0,0,1,123.2,13Z"/></g></g></g></mask><filter id="dj" x="167.26" y="12.72" width="1.54" height="0.85" filterUnits="userSpaceOnUse" color-interpolation-filters="sRGB"><feFlood flood-color="#fff" result="bg"/><feBlend in="SourceGraphic" in2="bg"/></filter><mask id="di" x="156.36" y="5.22" width="1.54" height="0.85" maskUnits="userSpaceOnUse"><g class="db"><g transform="translate(-10.9 -7.5)"><g class="w"><path class="x" d="M168.8,12.76a3.06,3.06,0,0,1-1.47.8L167.26,13A2.78,2.78,0,0,1,168.8,12.76Z"/></g></g></g></mask><filter id="dl" x="166.64" y="12.76" width="0.35" height="1.15" filterUnits="userSpaceOnUse" color-interpolation-filters="sRGB"><feFlood flood-color="#fff" result="bg"/><feBlend in="SourceGraphic" in2="bg"/></filter><mask id="dk" x="155.74" y="5.26" width="0.35" height="1.15" maskUnits="userSpaceOnUse"><g class="da"><g transform="translate(-10.9 -7.5)"><g class="y"><path class="z" d="M166.81,12.76a2,2,0,0,0-.18,1.08l0,0.07H167A2.12,2.12,0,0,0,166.81,12.76Z"/></g></g></g></mask><filter id="dn" x="167.05" y="12.76" width="0.35" height="1.16" filterUnits="userSpaceOnUse" color-interpolation-filters="sRGB"><feFlood flood-color="#fff" result="bg"/><feBlend in="SourceGraphic" in2="bg"/></filter><mask id="dm" x="156.15" y="5.26" width="0.35" height="1.16" maskUnits="userSpaceOnUse"><g class="cz"><g transform="translate(-10.9 -7.5)"><g class="aa"><path class="ab" d="M167.22,12.76a2.13,2.13,0,0,0-.18,1.16h0.35A2.13,2.13,0,0,0,167.22,12.76Z"/></g></g></g></mask><filter id="dp" x="167.44" y="12.76" width="0.35" height="1.16" filterUnits="userSpaceOnUse" color-interpolation-filters="sRGB"><feFlood flood-color="#fff" result="bg"/><feBlend in="SourceGraphic" in2="bg"/></filter><mask id="do" x="156.54" y="5.26" width="0.35" height="1.16" maskUnits="userSpaceOnUse"><g class="cy"><g transform="translate(-10.9 -7.5)"><g class="ac"><path class="ad" d="M167.62,12.76a2.13,2.13,0,0,0-.18,1.16h0.35A2.13,2.13,0,0,0,167.62,12.76Z"/></g></g></g></mask><filter id="dr" x="167.83" y="12.76" width="0.35" height="1.16" filterUnits="userSpaceOnUse" color-interpolation-filters="sRGB"><feFlood flood-color="#fff" result="bg"/><feBlend in="SourceGraphic" in2="bg"/></filter><mask id="dq" x="156.93" y="5.26" width="0.35" height="1.16" maskUnits="userSpaceOnUse"><g class="cx"><g transform="translate(-10.9 -7.5)"><g class="ae"><path class="af" d="M168.18,13.78a1.81,1.81,0,0,0-.17-1,2.13,2.13,0,0,0-.18,1.16h0.28A0.42,0.42,0,0,0,168.18,13.78Z"/></g></g></g></mask><filter id="dt" x="166.82" y="12.76" width="0.35" height="1.15" filterUnits="userSpaceOnUse" color-interpolation-filters="sRGB"><feFlood flood-color="#fff" result="bg"/><feBlend in="SourceGraphic" in2="bg"/></filter><mask id="ds" x="155.92" y="5.26" width="0.35" height="1.15" maskUnits="userSpaceOnUse"><g class="cw"><g transform="translate(-10.9 -7.5)"><g class="ag"><path class="ah" d="M167,12.76a2,2,0,0,0-.18,1.08l0,0.07h0.3A2.12,2.12,0,0,0,167,12.76Z"/></g></g></g></mask><filter id="dv" x="167.23" y="12.76" width="0.35" height="1.16" filterUnits="userSpaceOnUse" color-interpolation-filters="sRGB"><feFlood flood-color="#fff" result="bg"/><feBlend in="SourceGraphic" in2="bg"/></filter><mask id="du" x="156.33" y="5.26" width="0.35" height="1.16" maskUnits="userSpaceOnUse"><g class="cv"><g transform="translate(-10.9 -7.5)"><g class="ak"><path class="al" d="M167.4,12.76a2.13,2.13,0,0,0-.18,1.16h0.35A2.13,2.13,0,0,0,167.4,12.76Z"/></g></g></g></mask><filter id="dx" x="167.62" y="12.76" width="0.35" height="1.16" filterUnits="userSpaceOnUse" color-interpolation-filters="sRGB"><feFlood flood-color="#fff" result="bg"/><feBlend in="SourceGraphic" in2="bg"/></filter><mask id="dw" x="156.72" y="5.26" width="0.35" height="1.16" maskUnits="userSpaceOnUse"><g class="cu"><g transform="translate(-10.9 -7.5)"><g class="am"><path class="an" d="M167.8,12.76a2.13,2.13,0,0,0-.18,1.16H168A2.13,2.13,0,0,0,167.8,12.76Z"/></g></g></g></mask><filter id="dz" x="166.51" y="12.31" width="0.34" height="1.61" filterUnits="userSpaceOnUse" color-interpolation-filters="sRGB"><feFlood flood-color="#fff" result="bg"/><feBlend in="SourceGraphic" in2="bg"/></filter><mask id="dy" x="155.61" y="4.81" width="0.34" height="1.61" maskUnits="userSpaceOnUse"><g class="ct"><g transform="translate(-10.9 -7.5)"><g class="ao"><path class="ap" d="M166.7,12.31a1.48,1.48,0,0,0-.18.82,1.21,1.21,0,0,0,.17.79h0.17V12.31H166.7Z"/></g></g></g></mask><filter id="eb" x="167.9" y="12.31" width="0.37" height="1.61" filterUnits="userSpaceOnUse" color-interpolation-filters="sRGB"><feFlood flood-color="#fff" result="bg"/><feBlend in="SourceGraphic" in2="bg"/></filter><mask id="ea" x="157" y="4.81" width="0.37" height="1.61" maskUnits="userSpaceOnUse"><g class="cs"><g transform="translate(-10.9 -7.5)"><g class="aq"><path class="ar" d="M168.28,13.13a1.52,1.52,0,0,0-.16-0.82H167.9v1.61h0.21A1.41,1.41,0,0,0,168.28,13.13Z"/></g></g></g></mask><filter id="ed" x="164.55" y="11.76" width="1.99" height="1.67" filterUnits="userSpaceOnUse" color-interpolation-filters="sRGB"><feFlood flood-color="#fff" result="bg"/><feBlend in="SourceGraphic" in2="bg"/></filter><mask id="ec" x="153.65" y="4.26" width="1.99" height="1.67" maskUnits="userSpaceOnUse"><g class="cr"><g transform="translate(-10.9 -7.5)"><g class="as"><path class="at" d="M166.51,13.13a2.65,2.65,0,0,1,0-.31,4.83,4.83,0,0,0-2-1,3.69,3.69,0,0,0,1.32,1.27,6.91,6.91,0,0,0,.65.38A2.39,2.39,0,0,1,166.51,13.13Z"/></g></g></g></mask><filter id="ef" x="164.72" y="11.08" width="1.95" height="1.8" filterUnits="userSpaceOnUse" color-interpolation-filters="sRGB"><feFlood flood-color="#fff" result="bg"/><feBlend in="SourceGraphic" in2="bg"/></filter><mask id="ee" x="153.82" y="3.59" width="1.95" height="1.8" maskUnits="userSpaceOnUse"><g class="cq"><g transform="translate(-10.9 -7.5)"><g class="au"><path class="av" d="M164.73,11.1a5.7,5.7,0,0,0,1.8,1.78,1.45,1.45,0,0,1,.14-0.52,6.33,6.33,0,0,1-.48-0.46A3.23,3.23,0,0,0,164.73,11.1Z"/></g></g></g></mask><filter id="eh" x="168.26" y="12.08" width="1.93" height="1.35" filterUnits="userSpaceOnUse" color-interpolation-filters="sRGB"><feFlood flood-color="#fff" result="bg"/><feBlend in="SourceGraphic" in2="bg"/></filter><mask id="eg" x="157.36" y="4.58" width="1.93" height="1.35" maskUnits="userSpaceOnUse"><g class="cp"><g transform="translate(-10.9 -7.5)"><g class="aw"><path class="ax" d="M170.18,12.1a4.44,4.44,0,0,0-1.91.87s0,0.1,0,.15a2.53,2.53,0,0,1,0,.3h0a8.45,8.45,0,0,0,1-.47A2.16,2.16,0,0,0,170.18,12.1Z"/></g></g></g></mask><filter id="ej" x="168.17" y="11.7" width="1.44" height="1.3" filterUnits="userSpaceOnUse" color-interpolation-filters="sRGB"><feFlood flood-color="#fff" result="bg"/><feBlend in="SourceGraphic" in2="bg"/></filter><mask id="ei" x="157.26" y="4.2" width="1.44" height="1.3" maskUnits="userSpaceOnUse"><g class="co"><g transform="translate(-10.9 -7.5)"><g class="ay"><path class="az" d="M168.27,13a3.73,3.73,0,0,0,1.33-1.28,2.84,2.84,0,0,0-1.37.64l-0.07,0A1.91,1.91,0,0,1,168.27,13Z"/></g></g></g></mask></defs><title>felicity-logo</title><path class="be" d="M44.3,27.54a7,7,0,0,1-5.94,3.12,8.81,8.81,0,0,1-8.94-8.76c0-8.1,7.32-14,19-14,8.1,0,18.3,3.6,22.2,3.6a5.48,5.48,0,0,0,5-2.4,1.23,1.23,0,0,1,.72.6c-2.76,4-4.62,5.22-7.44,5.22-3.48,0-14.28-4-22.08-4-7.56,0-15,2-15,9.6,0,4,2.76,7.38,8.22,7.38A9.73,9.73,0,0,0,44,27Zm12.9,5.88c-1.68,9.42-6.78,21-15,21-5.34,0-8.64-3.54-8.64-7.56a8.13,8.13,0,0,1,5.64-7.74l0.42,0.54c-1.74,1.92-2.94,3.54-2.94,6.66,0,3.48,2.58,5.7,6.54,5.7,7.92,0,8.16-11.1,9.48-18.78a0.76,0.76,0,0,1,.06-0.36,53.66,53.66,0,0,0-7.32,1.68,2.06,2.06,0,0,1,0-2,61.9,61.9,0,0,1,7.68-2.1c1.14-7.08,2.28-14.64,7.32-16l0.36,0.3c-1.26,2.16-1.68,7.2-3,15.06a88.4,88.4,0,0,1,10-.42c0.84,0.54.6,2,.18,2.58-3.66,0-7.14.06-10.56,0.36Z" transform="translate(-10.9 -7.5)"/><path class="be" d="M100.88,38.76c-2.58,7.2-8.4,15.66-19,15.66-7.38,0-10.74-5.88-10.74-12.24,0-7.14,5-19.2,14.7-19.2C91.58,23,93,26.76,93,29c0,5.64-6.78,10.38-17.58,10.8-0.06.66-.06,1.38-0.06,2,0,5.16,2.28,9.72,8.34,9.72,8.82,0,13.92-8.34,15.24-13.44Zm-11.7-10c0-2.94-1.68-3.72-3.3-3.72-5.52,0-9.24,6-10.26,12.84C85.22,37.38,89.18,33.54,89.18,28.8Z" transform="translate(-10.9 -7.5)"/><path class="be" d="M119.12,38.64c-2.16,7.8-7.14,15.78-14,15.78-4.92,0-6.9-4.08-6.9-9.54,0-7.14,4.62-29.22,4.62-35.82A7.88,7.88,0,0,1,107,7.5c0,7.32-4.92,29.94-4.92,37.14,0,4,1.32,7,4.92,7,4.44,0,8.88-7.2,10.14-13.44Z" transform="translate(-10.9 -7.5)"/><path class="be" d="M137.29,38.64c-2.16,7.8-7.14,15.78-14,15.78-4.92,0-6.9-4.08-6.9-9.48,0-6.3,2.7-16.8,2.7-20.16a9.78,9.78,0,0,1,4.14-1.56c0,4.68-3,14.88-3,21.42,0,4,1.32,7,4.92,7,4.44,0,8.88-7.2,10.14-13.44Z" transform="translate(-10.9 -7.5)"/><path class="be" d="M120.68,12.06a2,2,0,0,1,1.91-1.91,1.91,1.91,0,0,1,0,3.83A2,2,0,0,1,120.68,12.06Z" transform="translate(-10.9 -7.5)"/><path class="be" d="M165.66,12.06a2,2,0,0,1,1.91-1.91,1.91,1.91,0,0,1,0,3.83A2,2,0,0,1,165.66,12.06Z" transform="translate(-10.9 -7.5)"/><path class="be" d="M163.93,38.76c-2.58,7.2-8.22,15.66-18.72,15.66-7.26,0-10.62-5.88-10.62-12.24,0-7.14,5-19.2,14.4-19.2,5.88,0,7.32,4.08,7.32,6.24s-1.5,5-4.62,4.68l-0.3-.36a7.55,7.55,0,0,0,1.5-4.5,3.59,3.59,0,0,0-3.84-4c-6.36,0-10.26,8.52-10.26,16.8,0,5.16,2.34,9.72,8.22,9.72,8.7,0,13.62-8.34,14.94-13.44Z" transform="translate(-10.9 -7.5)"/><path class="be" d="M182.11,38.64c-2.16,7.8-7.14,15.78-14,15.78-4.92,0-6.9-4.08-6.9-9.48,0-6.3,2.7-16.8,2.7-20.16a9.78,9.78,0,0,1,4.14-1.56c0,4.68-3,14.88-3,21.42,0,4,1.32,7,4.92,7,4.44,0,8.88-7.2,10.14-13.44Z" transform="translate(-10.9 -7.5)"/><path class="be" d="M200.29,38.64c-2.16,7.8-7.14,15.78-14,15.78-4.92,0-6.9-4.08-6.9-9.48,0-4,1.44-11.88,2.64-18.9-1.44-.06-2.82-0.12-4.26-0.3a2.23,2.23,0,0,1,.18-2,36.23,36.23,0,0,0,4.44.12,66.92,66.92,0,0,0,1.14-9.42,7,7,0,0,1,4.14-1.56,79.37,79.37,0,0,1-1.32,10.8,74.77,74.77,0,0,0,8.1-1,3,3,0,0,1-.18,2.82c-2.76.3-5.52,0.54-8.34,0.6-1.2,7.08-2.7,14.76-2.7,18.6,0,4,1.32,7,4.92,7,4.44,0,8.88-7.2,10.14-13.44Z" transform="translate(-10.9 -7.5)"/><path class="be" d="M198.79,54.12a11.42,11.42,0,0,0-2,6.84c0,5.34,4,7.32,7.5,7.32,6.42,0,8-7.32,9.36-16,0.3-2,.6-4,1-6-2.28,4.26-5.52,7.5-10.08,7.5-4.92,0-6.9-3.84-6.9-8.88,0-6.78,2.76-14.7,2.76-20.1a9.8,9.8,0,0,1,4.14-1.56c0,6.66-3.06,14.34-3.06,21.36,0,3.66,1.32,6.36,4.92,6.36,5.28,0,8.58-8.7,10-15.66L218.23,24a4.27,4.27,0,0,1,4.14-.3c-1,5.4-2.94,16.74-4.62,28.08C216.43,59.34,213,70.5,203.11,70.5c-6.12,0-9.78-4.08-9.78-8.28,0-3.18,1.5-6,4.86-8.34Z" transform="translate(-10.9 -7.5)"/><path class="bf" d="M225.73,65c1.73,0.29,3,.44,4.29.72,3.68,0.8,6.47,3.11,6,6.8a10.48,10.48,0,0,1-4.36,6.92c-6.57,3.84-13.75,3.34-20.79.92-4.88-1.67-9.64-3.73-14.59-5.17-9.16-2.66-18-1.36-23.84,3.55,12.45-6.12,23.1-.45,33.88,4.61,9.32,4.38,18.62,5,27.59-.95,4.54-3,6-7.57,4.16-12.14S232,63.84,225.73,65Z" transform="translate(-10.9 -7.5)"/><path class="bf" d="M227.65,87.52c-10.81,3.43-20.07-1.41-29.72-4.9-5.32-1.93-11.11-2.57-16.7-3.13q12.55,4.5,25.11,9C213.54,91.05,220.68,92,227.65,87.52Z" transform="translate(-10.9 -7.5)"/><path class="bf" d="M24,65c-1.73.29-3,.44-4.29,0.72-3.68.8-6.47,3.11-6,6.8a10.48,10.48,0,0,0,4.36,6.92c6.57,3.84,13.75,3.34,20.79.92,4.88-1.67,9.64-3.73,14.59-5.17,9.16-2.66,18-1.36,23.84,3.55-12.45-6.12-23.1-.45-33.88,4.61-9.32,4.38-18.62,5-27.59-.95-4.54-3-6-7.57-4.16-12.14S17.8,63.84,24,65Z" transform="translate(-10.9 -7.5)"/><path class="bf" d="M22.1,87.52c10.81,3.43,20.07-1.41,29.72-4.9,5.32-1.93,11.11-2.57,16.7-3.13Q56,84,43.41,88.49C36.21,91.05,29.07,92,22.1,87.52Z" transform="translate(-10.9 -7.5)"/><text class="bg" transform="translate(66.73 76.02)">Boutique</text><path class="be" d="M120.93,13.13a8.41,8.41,0,0,1-3.13-.61,2.55,2.55,0,0,1-1.29-1.07,1.19,1.19,0,0,0-.74.89c-0.08.68,0.43,1.34,1.76,1.63a13.11,13.11,0,0,0,4.76-.21A5.29,5.29,0,0,1,120.93,13.13Z" transform="translate(-10.9 -7.5)"/><path class="be" d="M118.49,9.7a1.53,1.53,0,0,0-2.06.74l-0.62,1.74a1.57,1.57,0,0,1,1.83-.82c1.86,0.26,2.79,1.86,4.65,2.4l0.21-.8C120.71,12.08,120.3,10.22,118.49,9.7Z" transform="translate(-10.9 -7.5)"/><path class="be" d="M115.81,12.18v0a1.58,1.58,0,0,1,1.84-.82,7.74,7.74,0,0,1,3.16,1.68,5.43,5.43,0,0,0,1.49.7h0c-1.86-.54-2.79-2.14-4.65-2.4A1.57,1.57,0,0,0,115.81,12.18Z" transform="translate(-10.9 -7.5)"/><path class="be" d="M115.76,12.42" transform="translate(-10.9 -7.5)"/><path class="bh" d="M120.89,13.13c-0.32,0-.75,0-1.23-0.1a8.13,8.13,0,0,0,2.5.7A5.4,5.4,0,0,1,120.89,13.13Z" transform="translate(-10.9 -7.5)"/><path class="bi" d="M117.15,12.16a2,2,0,0,1-.62-0.67,1.32,1.32,0,0,0-.73.7,0.81,0.81,0,0,0,0,.14A1.86,1.86,0,0,1,117.15,12.16Z" transform="translate(-10.9 -7.5)"/><path class="be" d="M123.69,13.22a8.41,8.41,0,0,0,3.19-.19,2.55,2.55,0,0,0,1.42-.89,1.19,1.19,0,0,1,.62,1c0,0.69-.6,1.28-2,1.38a13.11,13.11,0,0,1-4.69-.83A5.28,5.28,0,0,0,123.69,13.22Z" transform="translate(-10.9 -7.5)"/><path class="be" d="M126.56,10.14a1.53,1.53,0,0,1,1.95,1l0.39,1.8a1.57,1.57,0,0,0-1.71-1.05c-1.88,0-3,1.48-4.93,1.77l-0.11-.82C124.06,12.21,124.71,10.42,126.56,10.14Z" transform="translate(-10.9 -7.5)"/><path class="be" d="M128.9,12.95v0a1.58,1.58,0,0,0-1.71-1.05,7.74,7.74,0,0,0-3.36,1.26,5.43,5.43,0,0,1-1.57.5h0c1.92-.29,3-1.76,4.93-1.77A1.57,1.57,0,0,1,128.9,12.95Z" transform="translate(-10.9 -7.5)"/><g class="bj"><path class="be" d="M123.72,12.76a3.06,3.06,0,0,1-1.47.8L122.19,13A2.78,2.78,0,0,1,123.72,12.76Z" transform="translate(-10.9 -7.5)"/></g><path class="be" d="M128.92,13.19" transform="translate(-10.9 -7.5)"/><path class="bh" d="M123.74,13.23c0.32,0,.74.07,1.23,0.06a8.13,8.13,0,0,1-2.57.36A5.4,5.4,0,0,0,123.74,13.23Z" transform="translate(-10.9 -7.5)"/><path class="bi" d="M127.57,12.75a2,2,0,0,0,.71-0.58,1.32,1.32,0,0,1,.63.79,0.81,0.81,0,0,1,0,.14A1.86,1.86,0,0,0,127.57,12.75Z" transform="translate(-10.9 -7.5)"/><path class="be" d="M123,13.91h-1.43a1.21,1.21,0,0,1-.17-0.79,1.48,1.48,0,0,1,.18-0.82H123a1.52,1.52,0,0,1,.16.82A1.41,1.41,0,0,1,123,13.91Z" transform="translate(-10.9 -7.5)"/><g class="bk"><path class="bl" d="M121.74,12.76a2,2,0,0,0-.18,1.08l0,0.07h0.3A2.12,2.12,0,0,0,121.74,12.76Z" transform="translate(-10.9 -7.5)"/></g><g class="bm"><path class="bl" d="M122.15,12.76a2.13,2.13,0,0,0-.18,1.16h0.35A2.13,2.13,0,0,0,122.15,12.76Z" transform="translate(-10.9 -7.5)"/></g><g class="bn"><path class="bl" d="M122.54,12.76a2.13,2.13,0,0,0-.18,1.16h0.35A2.13,2.13,0,0,0,122.54,12.76Z" transform="translate(-10.9 -7.5)"/></g><g class="bo"><path class="bl" d="M123.11,13.78a1.81,1.81,0,0,0-.17-1,2.13,2.13,0,0,0-.18,1.16H123A0.42,0.42,0,0,0,123.11,13.78Z" transform="translate(-10.9 -7.5)"/></g><g class="bp"><path class="bl" d="M121.92,12.76a2,2,0,0,0-.18,1.08l0,0.07h0.3A2.12,2.12,0,0,0,121.92,12.76Z" transform="translate(-10.9 -7.5)"/></g><g class="bq"><path class="bl" d="M122.33,12.76a2.13,2.13,0,0,0-.18,1.16h0.35A2.13,2.13,0,0,0,122.33,12.76Z" transform="translate(-10.9 -7.5)"/></g><g class="br"><path class="bl" d="M122.72,12.76a2.13,2.13,0,0,0-.18,1.16h0.35A2.13,2.13,0,0,0,122.72,12.76Z" transform="translate(-10.9 -7.5)"/></g><g class="bs"><path class="bl" d="M121.62,12.31a1.48,1.48,0,0,0-.18.82,1.21,1.21,0,0,0,.17.79h0.17V12.31h-0.16Z" transform="translate(-10.9 -7.5)"/></g><g class="bt"><path class="bl" d="M123.2,13.13a1.52,1.52,0,0,0-.16-0.82h-0.21v1.61H123A1.41,1.41,0,0,0,123.2,13.13Z" transform="translate(-10.9 -7.5)"/></g><g class="bu"><path class="bv" d="M121.44,13.13a2.65,2.65,0,0,1,0-.31,4.83,4.83,0,0,0-2-1,3.69,3.69,0,0,0,1.32,1.27,6.91,6.91,0,0,0,.65.38A2.39,2.39,0,0,1,121.44,13.13Z" transform="translate(-10.9 -7.5)"/></g><g class="bw"><path class="bv" d="M119.65,11.1a5.7,5.7,0,0,0,1.8,1.78,1.45,1.45,0,0,1,.14-0.52,6.33,6.33,0,0,1-.48-0.46A3.23,3.23,0,0,0,119.65,11.1Z" transform="translate(-10.9 -7.5)"/></g><g class="bx"><path class="by" d="M125.11,12.1a4.44,4.44,0,0,0-1.91.87s0,0.1,0,.15a2.53,2.53,0,0,1,0,.3h0a8.45,8.45,0,0,0,1-.47A2.16,2.16,0,0,0,125.11,12.1Z" transform="translate(-10.9 -7.5)"/></g><g class="bz"><path class="by" d="M123.2,13a3.73,3.73,0,0,0,1.33-1.28,2.84,2.84,0,0,0-1.37.64l-0.07,0A1.91,1.91,0,0,1,123.2,13Z" transform="translate(-10.9 -7.5)"/></g><path class="be" d="M166,13.13a8.41,8.41,0,0,1-3.13-.61,2.55,2.55,0,0,1-1.29-1.07,1.19,1.19,0,0,0-.74.89c-0.08.68,0.43,1.34,1.76,1.63a13.11,13.11,0,0,0,4.76-.21A5.29,5.29,0,0,1,166,13.13Z" transform="translate(-10.9 -7.5)"/><path class="be" d="M163.57,9.7a1.53,1.53,0,0,0-2.06.74l-0.62,1.74a1.57,1.57,0,0,1,1.83-.82c1.86,0.26,2.79,1.86,4.65,2.4l0.21-.8C165.78,12.08,165.37,10.22,163.57,9.7Z" transform="translate(-10.9 -7.5)"/><path class="be" d="M160.88,12.18v0a1.58,1.58,0,0,1,1.84-.82,7.74,7.74,0,0,1,3.16,1.68,5.43,5.43,0,0,0,1.49.7h0c-1.86-.54-2.79-2.14-4.65-2.4A1.57,1.57,0,0,0,160.88,12.18Z" transform="translate(-10.9 -7.5)"/><path class="be" d="M160.84,12.42" transform="translate(-10.9 -7.5)"/><path class="bh" d="M166,13.13c-0.32,0-.75,0-1.23-0.1a8.13,8.13,0,0,0,2.5.7A5.4,5.4,0,0,1,166,13.13Z" transform="translate(-10.9 -7.5)"/><path class="bi" d="M162.22,12.16a2,2,0,0,1-.62-0.67,1.32,1.32,0,0,0-.73.7,0.81,0.81,0,0,0,0,.14A1.86,1.86,0,0,1,162.22,12.16Z" transform="translate(-10.9 -7.5)"/><path class="be" d="M168.77,13.22A8.41,8.41,0,0,0,172,13a2.55,2.55,0,0,0,1.42-.89,1.19,1.19,0,0,1,.62,1c0,0.69-.6,1.28-2,1.38a13.11,13.11,0,0,1-4.69-.83A5.28,5.28,0,0,0,168.77,13.22Z" transform="translate(-10.9 -7.5)"/><path class="be" d="M171.64,10.14a1.53,1.53,0,0,1,1.95,1l0.39,1.8a1.57,1.57,0,0,0-1.71-1.05c-1.88,0-3,1.48-4.93,1.77l-0.11-.82C169.13,12.21,169.78,10.42,171.64,10.14Z" transform="translate(-10.9 -7.5)"/><path class="be" d="M174,12.95v0a1.58,1.58,0,0,0-1.71-1.05,7.74,7.74,0,0,0-3.36,1.26,5.43,5.43,0,0,1-1.57.5h0c1.92-.29,3-1.76,4.93-1.77A1.57,1.57,0,0,1,174,12.95Z" transform="translate(-10.9 -7.5)"/><g class="ca"><path class="be" d="M168.8,12.76a3.06,3.06,0,0,1-1.47.8L167.26,13A2.78,2.78,0,0,1,168.8,12.76Z" transform="translate(-10.9 -7.5)"/></g><path class="be" d="M174,13.19" transform="translate(-10.9 -7.5)"/><path class="bh" d="M168.81,13.23c0.32,0,.74.07,1.23,0.06a8.13,8.13,0,0,1-2.57.36A5.4,5.4,0,0,0,168.81,13.23Z" transform="translate(-10.9 -7.5)"/><path class="bi" d="M172.65,12.75a2,2,0,0,0,.71-0.58A1.32,1.32,0,0,1,174,13a0.81,0.81,0,0,1,0,.14A1.86,1.86,0,0,0,172.65,12.75Z" transform="translate(-10.9 -7.5)"/><path class="be" d="M168.11,13.91h-1.43a1.21,1.21,0,0,1-.17-0.79,1.48,1.48,0,0,1,.18-0.82h1.42a1.52,1.52,0,0,1,.16.82A1.41,1.41,0,0,1,168.11,13.91Z" transform="translate(-10.9 -7.5)"/><g class="cb"><path class="bl" d="M166.81,12.76a2,2,0,0,0-.18,1.08l0,0.07H167A2.12,2.12,0,0,0,166.81,12.76Z" transform="translate(-10.9 -7.5)"/></g><g class="cc"><path class="bl" d="M167.22,12.76a2.13,2.13,0,0,0-.18,1.16h0.35A2.13,2.13,0,0,0,167.22,12.76Z" transform="translate(-10.9 -7.5)"/></g><g class="cd"><path class="bl" d="M167.62,12.76a2.13,2.13,0,0,0-.18,1.16h0.35A2.13,2.13,0,0,0,167.62,12.76Z" transform="translate(-10.9 -7.5)"/></g><g class="ce"><path class="bl" d="M168.18,13.78a1.81,1.81,0,0,0-.17-1,2.13,2.13,0,0,0-.18,1.16h0.28A0.42,0.42,0,0,0,168.18,13.78Z" transform="translate(-10.9 -7.5)"/></g><g class="cf"><path class="bl" d="M167,12.76a2,2,0,0,0-.18,1.08l0,0.07h0.3A2.12,2.12,0,0,0,167,12.76Z" transform="translate(-10.9 -7.5)"/></g><g class="cg"><path class="bl" d="M167.4,12.76a2.13,2.13,0,0,0-.18,1.16h0.35A2.13,2.13,0,0,0,167.4,12.76Z" transform="translate(-10.9 -7.5)"/></g><g class="ch"><path class="bl" d="M167.8,12.76a2.13,2.13,0,0,0-.18,1.16H168A2.13,2.13,0,0,0,167.8,12.76Z" transform="translate(-10.9 -7.5)"/></g><g class="ci"><path class="bl" d="M166.7,12.31a1.48,1.48,0,0,0-.18.82,1.21,1.21,0,0,0,.17.79h0.17V12.31H166.7Z" transform="translate(-10.9 -7.5)"/></g><g class="cj"><path class="bl" d="M168.28,13.13a1.52,1.52,0,0,0-.16-0.82H167.9v1.61h0.21A1.41,1.41,0,0,0,168.28,13.13Z" transform="translate(-10.9 -7.5)"/></g><g class="ck"><path class="bv" d="M166.51,13.13a2.65,2.65,0,0,1,0-.31,4.83,4.83,0,0,0-2-1,3.69,3.69,0,0,0,1.32,1.27,6.91,6.91,0,0,0,.65.38A2.39,2.39,0,0,1,166.51,13.13Z" transform="translate(-10.9 -7.5)"/></g><g class="cl"><path class="bv" d="M164.73,11.1a5.7,5.7,0,0,0,1.8,1.78,1.45,1.45,0,0,1,.14-0.52,6.33,6.33,0,0,1-.48-0.46A3.23,3.23,0,0,0,164.73,11.1Z" transform="translate(-10.9 -7.5)"/></g><g class="cm"><path class="by" d="M170.18,12.1a4.44,4.44,0,0,0-1.91.87s0,0.1,0,.15a2.53,2.53,0,0,1,0,.3h0a8.45,8.45,0,0,0,1-.47A2.16,2.16,0,0,0,170.18,12.1Z" transform="translate(-10.9 -7.5)"/></g><g class="cn"><path class="by" d="M168.27,13a3.73,3.73,0,0,0,1.33-1.28,2.84,2.84,0,0,0-1.37.64l-0.07,0A1.91,1.91,0,0,1,168.27,13Z" transform="translate(-10.9 -7.5)"/></g></svg>