<svg xmlns="http://www.w3.org/2000/svg" viewBox="0 0 74 71.2"><defs><style>.a{fill:#d9e021;}.b{fill:#db678c;}.c{fill:#eaa753;}.d{fill:#fb8c6c;}.e{fill:#76647f;}.f{fill:#1a1a1a;}</style></defs><title>readesign</title><path class="a" d="M56.29,55.41l0.11,0.25V54H55.9Z" transform="translate(-1.26 -1.54)"/><path class="b" d="M23.65,56.31V18H1.27v6.89A35.47,35.47,0,0,0,4.43,40.39a28.63,28.63,0,0,0,9.73,11.22,18.73,18.73,0,0,0,4.62,2.69h0a1.1,1.1,0,0,0,.57.35C21,55.41,22.68,56,23.65,56.31Z" transform="translate(-1.26 -1.54)"/><path class="c" d="M57.73,50.69H18.79v22h7a37,37,0,0,0,15.77-3.11A28.83,28.83,0,0,0,53,60a18.31,18.31,0,0,0,2.74-4.55h0A1.08,1.08,0,0,0,56,54.92C56.82,53.26,57.37,51.65,57.73,50.69Z" transform="translate(-1.26 -1.54)"/><path class="d" d="M52.87,18V56.31H75.25V49.42a35.47,35.47,0,0,0-3.16-15.53,28.63,28.63,0,0,0-9.73-11.22A18.73,18.73,0,0,0,57.73,20h0a1.1,1.1,0,0,0-.57-0.35C55.48,18.87,53.84,18.33,52.87,18Z" transform="translate(-1.26 -1.54)"/><path class="e" d="M18.79,23.59H57.73v-22h-7A37,37,0,0,0,35,4.67a28.83,28.83,0,0,0-11.39,9.58,18.31,18.31,0,0,0-2.74,4.55h0a1.08,1.08,0,0,0-.35.57C19.7,21,19.15,22.63,18.79,23.59Z" transform="translate(-1.26 -1.54)"/><path class="b" d="M35.11,15.68L59.46,40,73.68,25.82,69.3,21.44a31.86,31.86,0,0,0-11.87-7.86,25.72,25.72,0,0,0-13.31-.94,16.82,16.82,0,0,0-4.65,1.23h0a1,1,0,0,0-.59.14C37.33,14.6,36,15.29,35.11,15.68Z" transform="translate(-1.26 -1.54)"/><path class="c" d="M17,40.9L41.76,16.16l-14-14L23.32,6.61a33.25,33.25,0,0,0-8,12,25.9,25.9,0,0,0-1.15,13.32,16.45,16.45,0,0,0,1.15,4.63h0a1,1,0,0,0,.13.58C16,38.69,16.65,40.06,17,40.9Z" transform="translate(-1.26 -1.54)"/><path class="d" d="M40.9,58.6L16.55,34.24,2.33,48.46l4.38,4.38a31.86,31.86,0,0,0,11.87,7.86,25.72,25.72,0,0,0,13.31.94,16.82,16.82,0,0,0,4.65-1.23h0a1,1,0,0,0,.59-0.14C38.68,59.68,40.06,59,40.9,58.6Z" transform="translate(-1.26 -1.54)"/><path class="e" d="M59,33.38L34.25,58.12l14,14,4.45-4.45a33.25,33.25,0,0,0,8-12,25.9,25.9,0,0,0,1.15-13.32,16.45,16.45,0,0,0-1.15-4.63h0a1,1,0,0,0-.13-0.58C60,35.59,59.36,34.22,59,33.38Z" transform="translate(-1.26 -1.54)"/><polygon class="f" points="36.33 57.25 36.35 55.22 36.34 55.22 36.33 57.25"/></svg>