<?xml version="1.0" encoding="utf-8"?>
<!-- Generator: Adobe Illustrator 19.2.0, SVG Export Plug-In . SVG Version: 6.00 Build 0)  -->
<svg version="1.1" id="Layer_1" xmlns="http://www.w3.org/2000/svg" xmlns:xlink="http://www.w3.org/1999/xlink" x="0px" y="0px"
	 viewBox="0 0 76 74.3" style="enable-background:new 0 0 76 74.3;" xml:space="preserve">
<style type="text/css">
	.st0{fill:none;}
	.st1{fill:#D9E021;}
	.st2{fill:#C1272D;}
	.st3{fill:#00A99D;}
	.st4{fill:#29ABE2;}
</style>
<title>readesign</title>
<path class="st0" d="M41.6,39.3c1.9,0,3.8-0.6,5.2-1.9c1.3-1.1,2-2.8,1.9-4.5c0.1-1.7-0.6-3.4-2-4.5c-1.6-1-3.4-1.5-5.3-1.5
	c-0.8,0-1.6,0-2.3-0.1c-0.5,0-1.1,0-1.7,0v2.8V36v3.3H41.6L41.6,39.3z"/>
<path class="st0" d="M37.3,50.1l0.1,1.2h10.9c-0.1-0.2-0.1-0.5-0.2-0.8c-0.2-0.7-0.3-1.5-0.5-2.3c-0.2-1.7-1-3.2-2.1-4.5
	c-1.2-1-2.7-1.5-4.2-1.4h-3.8v1l-0.1,0.3l-0.1,1.3"/>
<polygon class="st0" points="37.5,39.3 37.5,39.3 37.5,40.8 37.5,42.3 37,42.3 37,41.7 "/>
<path class="st0" d="M37.8,25.5l-0.2-1.2h7.8c-1.2,0-2.6-0.4-4.2-0.4c-0.6,0-1.3,0-1.9,0s-1.2,0-1.8,0.1v3.3H38v-0.6L37.8,25.5z"/>
<polygon class="st0" points="33,49.6 33,36.8 33,24.3 27.9,24.3 23,24.3 23,37 23,51.3 33,51.3 33,50.4 "/>
<path class="st1" d="M48.4,51.3H23V57c-1-0.4-2.7-1-4.4-1.8c-0.2-0.1-0.4-0.2-0.6-0.3v19.4h7.4c6.1,0,11.5-0.9,16.1-3.1
	c4.7-2.2,8.7-5.5,11.6-9.7c1.3-1.8,2.3-4.2,3.1-5.2l-3.2-5H48.4"/>
<path class="st2" d="M53,24.3v28.4c0.1,0.7,0,1.2,0,2.1c0,0.6,0,1,0,1.5l23-0.1v-7.8c0-6.1-0.9-11.5-3.1-16.1
	c-2.2-4.7-5.6-8.7-9.9-11.6c-1.6-1.1-3.3-2.1-5-2.9l-0.4-0.2c-1.8-0.8-3.6-1.4-4.6-1.8v4.4"/>
<path class="st3" d="M23.3,17.3H23v3h30v-4.4c1,0.4,2.8,1,4.6,1.8c0.2,0,0.3,0.1,0.4,0.2V0l-3.7,0.3h-3.7c-6.1,0-11.5,0.9-16.1,3.1
	c-4.7,2.3-8.7,5.7-11.6,10c-0.9,1.3-1.6,2.9-2.3,3.9H23.3z"/>
<path class="st1" d="M52.9,52.5l0.1,0.2v-1.4h-0.4L52.9,52.5z"/>
<path class="st4" d="M23,57V17.3H0v7.1c-0.1,5.5,1,11,3.3,16.1c2.3,4.7,5.7,8.7,10,11.6c1.4,1.2,3,2.1,4.8,2.8l0,0
	c0.2,0.2,0.4,0.3,0.6,0.4C20.3,56.1,22,56.6,23,57z"/>
</svg>
