<svg xmlns="http://www.w3.org/2000/svg" viewBox="0 0 106.17 71.2"><defs><style>.a{fill:#3b3737;}.b{fill:#991818;}</style></defs><title>trdesign</title><path class="a" d="M0.83,71.51s0.8-.19,2.19-0.44c0.35-.07.74-0.12,1.15-0.22S5,70.65,5.5,70.54L7,70.2C7.48,70,8,69.89,8.58,69.72a11.48,11.48,0,0,0,1.7-.58c0.57-.24,1.17-0.44,1.76-0.69l1.76-.89c0.6-.3,1.14-0.72,1.72-1.07a14.06,14.06,0,0,0,1.66-1.26c0.27-.23.56-0.43,0.81-0.68l0.75-.77L19.5,63c0.24-.27.45-0.57,0.69-0.85a16.38,16.38,0,0,0,1.33-1.77c0.41-.63.84-1.23,1.23-1.87s0.73-1.32,1.09-2c0.69-1.33,1.34-2.68,1.93-4s1.17-2.63,1.62-3.91,1-2.44,1.39-3.58,0.8-2.15,1.16-3.06,0.63-1.72.88-2.38c0.51-1.32.85-2.07,0.85-2.07s0,0.82-.07,2.24c0,0.71-.08,1.58-0.17,2.56s-0.24,2.09-.43,3.3-0.44,2.51-.74,3.88-0.74,2.8-1.18,4.28c-0.2.75-.54,1.47-0.82,2.22a21.41,21.41,0,0,1-1,2.25c-0.37.74-.74,1.49-1.14,2.23s-0.91,1.44-1.37,2.16a20,20,0,0,1-1.58,2c-0.28.33-.54,0.67-0.84,1l-0.95.88-0.94.87c-0.32.28-.69,0.5-1,0.75a13.71,13.71,0,0,1-2.1,1.33,20.29,20.29,0,0,1-2.16,1L13,71.27A24.21,24.21,0,0,1,9,72c-0.63,0-1.22.11-1.78,0.14l-1.62,0c-0.5,0-1,0-1.4-.05S3.4,71.9,3,71.86C1.64,71.67.83,71.51,0.83,71.51Z" transform="translate(-0.83 -0.9)"/><path class="a" d="M61,16.63a10.27,10.27,0,0,1-2.94,3,23.47,23.47,0,0,1-3.68,2.14,49.94,49.94,0,0,1-7.92,2.92c-2.7.76-5.42,1.38-8.16,1.88s-5.49.9-8.25,1.23q-2.07.23-4.14,0.42l-2.08.16-1,.07a3.69,3.69,0,0,0-.65.08,3.79,3.79,0,0,0-1.05.4c-0.59.31-1.12,0.61-1.68,0.95-1.1.66-2.18,1.36-3.23,2.08a32.68,32.68,0,0,0-5.63,4.87,13.79,13.79,0,0,0-3.35,5.83L3.57,39.95c0.65-.29,1.24-0.52,1.86-0.77l1.84-.69C8.5,38,9.74,37.64,11,37.26a56.4,56.4,0,0,1,7.67-1.77,33.27,33.27,0,0,1,7.92-.34,17.46,17.46,0,0,1,3.9.84,9.23,9.23,0,0,1,3.36,2,10,10,0,0,0-3.59-1,16,16,0,0,0-3.67.06,35.65,35.65,0,0,0-7.18,1.64c-2.35.76-4.66,1.66-6.93,2.64-1.14.49-2.26,1-3.38,1.54l-1.66.81-1.6.84L1.46,46.8l0.73-5A15.8,15.8,0,0,1,3.63,37.1a21.68,21.68,0,0,1,2.54-4,33.14,33.14,0,0,1,6.57-6,41.17,41.17,0,0,1,3.68-2.35c0.62-.36,1.29-0.72,1.91-1a9,9,0,0,1,2.81-.94,10,10,0,0,1,1.4-.12l1,0,2-.07q2-.06,4-0.17c2.7-.12,5.39-0.29,8.08-0.48s5.37-.44,8-0.77a75.65,75.65,0,0,0,7.93-1.33,31.17,31.17,0,0,0,3.83-1.16A12,12,0,0,0,61,16.63Z" transform="translate(-0.83 -0.9)"/><path class="b" d="M31.53,20.81a9.65,9.65,0,0,1,1.28-4.66,14.32,14.32,0,0,1,3.14-3.83,20.74,20.74,0,0,1,2-1.52A24.91,24.91,0,0,1,40.1,9.56c0.74-.37,1.5-0.73,2.27-1S43.93,8,44.71,7.71a36.66,36.66,0,0,1,4.81-1.15c0.81-.14,1.62-0.28,2.43-0.37S53.58,6,54.39,5.91,56,5.76,56.84,5.73s1.63-.1,2.45-0.09,1.63,0,2.44,0l2.44,0.06h0l0.21,0c0.63,0.08,1.34.15,2,.21s1.38,0.11,2.08.15c1.39,0.09,2.78.13,4.17,0.16s2.78,0,4.17,0c0.69,0,1.39,0,2.08-.06s1.39,0,2.08-.1C82.36,6,83.73,5.86,85.1,5.71c0.69-.06,1.36-0.18,2-0.27s1.36-.18,2-0.32l2-.37,2-.44c0.67-.14,1.33-0.29,2-0.49l2-.54,8.7-2.4-5.6,7c-0.79,1-1.54,1.84-2.34,2.73s-1.6,1.72-2.44,2.56a51.92,51.92,0,0,1-5.4,4.73,27.59,27.59,0,0,1-6.6,3.73,14.19,14.19,0,0,1-4.13.92,9.22,9.22,0,0,0-1.22.07,1.68,1.68,0,0,0-.58.24,4.42,4.42,0,0,0-1.31,1.52,13.66,13.66,0,0,0-1.12,2.54A33.45,33.45,0,0,0,73.79,33c-0.29,2.13-.43,4.31-0.53,6.5q-0.08,1.64-.1,3.3c0,1.09,0,2.22,0,3.27l0-.23c0.18,1,.32,2,0.53,3.05s0.4,2,.63,3,0.48,2,.77,3,0.59,1.93.94,2.87a25.19,25.19,0,0,0,1.19,2.72c0.22,0.44.45,0.87,0.71,1.28A13.45,13.45,0,0,0,78.71,63a15.51,15.51,0,0,0,1.87,2.19,15.66,15.66,0,0,0,4.85,3.17,22,22,0,0,0,2.85,1c1,0.28,2,.49,3,0.68s2.05,0.35,3.09.48c4.16,0.52,8.4.73,12.63,1.06-4.23.3-8.46,0.59-12.75,0.52C93.18,72,92.11,72,91,71.89s-2.16-.22-3.24-0.42a24.32,24.32,0,0,1-3.23-.79,18.53,18.53,0,0,1-3.14-1.31,16.54,16.54,0,0,1-2.88-1.92A18.7,18.7,0,0,1,76.09,65a16.59,16.59,0,0,1-1-1.37c-0.34-.46-0.64-0.94-0.93-1.43a28.78,28.78,0,0,1-1.57-3c-0.47-1-.9-2-1.27-3.08S70.57,54,70.25,53s-0.59-2.1-.84-3.16-0.48-2.11-.72-3.17v0l0-.18c-0.12-1.2-.21-2.33-0.28-3.5s-0.12-2.31-.14-3.48a68.6,68.6,0,0,1,.24-7,38.77,38.77,0,0,1,1.24-7.18,18.1,18.1,0,0,1,1.47-3.7A10.12,10.12,0,0,1,74.29,18a7.57,7.57,0,0,1,2.5-1.11,12.34,12.34,0,0,1,2.15-.24,9.24,9.24,0,0,0,2.44-.6,21.84,21.84,0,0,0,5.12-3A47.66,47.66,0,0,0,91.33,9q1.16-1.12,2.27-2.31C94.32,5.87,95.07,5,95.7,4.27L98.8,8.86l-2.18.57c-0.72.2-1.45,0.37-2.19,0.51s-1.46.31-2.2,0.43L90,10.7c-0.73.12-1.47,0.18-2.21,0.26s-1.47.17-2.21,0.21c-1.47.11-2.94,0.19-4.41,0.22-0.74,0-1.47,0-2.2,0s-1.47,0-2.2,0c-1.47,0-2.93-.09-4.39-0.2S69.5,11,68,10.77c-0.73-.09-1.45-0.18-2.18-0.29s-1.44-.22-2.22-0.36l0.21,0-2.32-.21C60.75,9.85,60,9.83,59.2,9.78c-1.55-.09-3.1-0.17-4.64-0.16-0.77,0-1.54,0-2.31,0s-1.54.07-2.3,0.13-1.52.16-2.29,0.24-1.52.21-2.27,0.35a23.85,23.85,0,0,0-8.5,3.17,13.68,13.68,0,0,0-3.37,3.06,10.58,10.58,0,0,0-1.24,2A8.68,8.68,0,0,0,31.53,20.81Z" transform="translate(-0.83 -0.9)"/></svg>